<svg xmlns="http://www.w3.org/2000/svg" viewBox="0 0 103.06 100.86"><defs><style>.cls-1{isolation:isolate;}.cls-2{fill:#c2c1c2;}.cls-3{fill:#d6d6d5;}.cls-4{fill:#f6f5f5;}.cls-5{fill:#26204f;mix-blend-mode:multiply;opacity:0.15;}.cls-6{fill:#e2e1e1;}</style></defs><g class="cls-1"><g id="Warstwa_1" data-name="Warstwa 1"><path class="cls-2" d="M17.85,64.87l1.73,3.28a5.43,5.43,0,0,1-2.36,7.22l-2.6,1.4a5.29,5.29,0,0,1-7.23-2L5.66,71.45A5.43,5.43,0,0,1,8,64.23l2.6-1.4A5.28,5.28,0,0,1,17.85,64.87Z"/><path class="cls-2" d="M56.8,86.4l13.58-3.61a.31.31,0,0,1,.39.22L73.69,95.4a.33.33,0,0,1-.25.39L59.87,99.41a.32.32,0,0,1-.39-.23L56.56,86.8A.35.35,0,0,1,56.8,86.4Z"/><path class="cls-3" d="M97.79,65.44,96.7,68.56a5.9,5.9,0,0,1-7.19,3.68l-2.27-.7A5.34,5.34,0,0,1,83.8,64.6l1.09-3.11a5.9,5.9,0,0,1,7.19-3.68l2.27.69A5.34,5.34,0,0,1,97.79,65.44Z"/><path class="cls-3" d="M88.57,19.94l2.83,4.37a4.61,4.61,0,0,1-1.47,6.31l-3.79,2.47a4.56,4.56,0,0,1-6.34-1.2L77,27.52a4.61,4.61,0,0,1,1.47-6.31l3.79-2.47A4.57,4.57,0,0,1,88.57,19.94Z"/><path class="cls-3" d="M53.65,17.87l-3.28-.11a6.49,6.49,0,0,1-6.3-7h0a7.16,7.16,0,0,1,7.35-6.48l3.28.12a6.46,6.46,0,0,1,6.29,7h0A7.15,7.15,0,0,1,53.65,17.87Z"/><path class="cls-4" d="M76.75,89.61c-21.27,14.93-50.12,10.51-64.42-9.87S3.68,30.72,25,15.79,75.08,5.28,89.38,25.67,98,74.68,76.75,89.61Z"/><path class="cls-5" d="M28.3,68.53C15.84,50.77,18.53,26.75,33.5,11A49.63,49.63,0,0,0,25,15.79C3.68,30.72-2,59.35,12.33,79.74s43.15,24.8,64.42,9.87a48.94,48.94,0,0,0,7.43-6.4C64.26,91.92,40.76,86.29,28.3,68.53Z"/><path class="cls-6" d="M66.79,28.25c-1.12,1.72-4.08,1.87-6.61.33s-3.65-4.2-2.52-5.92,4.09-1.87,6.61-.33S67.92,26.52,66.79,28.25Z"/><path class="cls-6" d="M55.23,22.18c1.7-2.6,6.16-2.82,10-.5C68,23.4,69.67,26,69.66,28.34c.55-2.49-1.15-5.63-4.35-7.59-3.81-2.33-8.27-2.11-10,.49a4.1,4.1,0,0,0-.65,2.26A3.8,3.8,0,0,1,55.23,22.18Z"/><path class="cls-5" d="M66.79,28.25a2.69,2.69,0,0,0,.44-1.4c-1.24,1.51-4,1.57-6.44.1a5.51,5.51,0,0,1-3-4.52,2,2,0,0,0-.17.23c-1.13,1.72,0,4.37,2.52,5.92S65.67,30,66.79,28.25Z"/><path class="cls-6" d="M84.59,34.73c-.87.76-2.63.18-3.94-1.29s-1.66-3.28-.8-4,2.63-.18,3.94,1.29S85.45,34,84.59,34.73Z"/><path class="cls-6" d="M76.12,52.05c-.07-1,1-1.95,2.42-2.25a3.17,3.17,0,0,0-.43,0c-1.66.17-2.94,1.22-2.86,2.33s1.48,1.86,3.14,1.69l.43-.08C77.36,53.77,76.19,53.06,76.12,52.05Z"/><path class="cls-5" d="M78.61,28.64c1.39-1.21,4.21-.28,6.3,2.07a8.51,8.51,0,0,1,1.81,3.11,7.89,7.89,0,0,0-2-3.94c-2.1-2.35-4.92-3.28-6.3-2.07-.8.69-.94,2-.52,3.34A2.71,2.71,0,0,1,78.61,28.64Z"/><path class="cls-5" d="M84.59,34.73c.75-.65.58-2.09-.33-3.42A2,2,0,0,1,84,33.45c-.86.75-2.63.17-3.93-1.3a5.34,5.34,0,0,1-.48-.61,5.36,5.36,0,0,0,1.11,1.9C82,34.91,83.72,35.49,84.59,34.73Z"/><path class="cls-6" d="M40.29,20.1c.07,2-2.29,3.82-5.26,4s-5.43-1.24-5.5-3.25,2.28-3.81,5.25-4S40.22,18.09,40.29,20.1Z"/><path class="cls-5" d="M41.92,20.15c.08,2.14-2.05,4.09-5,4.8,3.19-.36,5.67-2.33,5.59-4.52a3.44,3.44,0,0,0-1.88-2.78A3.48,3.48,0,0,1,41.92,20.15Z"/><path class="cls-5" d="M28.07,20.52C28,17.76,31,15.27,34.88,14.66c-.32,0-.64,0-1,0-4.41.32-7.89,3-7.79,6s3.75,5.13,8.15,4.81c.33,0,.66-.06,1-.11C31.3,25.32,28.17,23.27,28.07,20.52Z"/><path class="cls-5" d="M40.29,20.1c-.07-2-2.53-3.46-5.51-3.25a8.33,8.33,0,0,0-1.34.22c2.34.24,4.1,1.53,4.16,3.23S36,23.54,33.68,24.11a7.58,7.58,0,0,0,1.35,0C38,23.92,40.36,22.11,40.29,20.1Z"/><path class="cls-6" d="M32.52,41.64c.15,4.35-2.66,8.09-6.28,8.36s-6.68-3.06-6.83-7.41,2.67-8.1,6.29-8.36S32.38,37.28,32.52,41.64Z"/><path class="cls-5" d="M22.13,36.74c3.62-.27,6.67,3,6.82,7.41a9.07,9.07,0,0,1-1.71,5.67c3.12-.81,5.42-4.24,5.28-8.18-.14-4.36-3.2-7.68-6.82-7.41a6.34,6.34,0,0,0-4.58,2.68A5.61,5.61,0,0,1,22.13,36.74Z"/><path class="cls-5" d="M31.54,51.56A8.46,8.46,0,0,1,27.3,53.3c-5.16.56-9.69-4-10.12-10.23a12.67,12.67,0,0,1,2.65-8.84A12.19,12.19,0,0,0,15.5,44.72c.43,6.2,5,10.78,10.13,10.23A8.9,8.9,0,0,0,31.54,51.56Z"/><path class="cls-5" d="M12.55,59.8c2.78-.2,5.13,2.79,5.26,6.68a8.1,8.1,0,0,1-2.43,6.39c1.91-1.12,3.21-3.81,3.1-6.86-.13-3.89-2.49-6.88-5.26-6.68a4,4,0,0,0-2.35,1A3.87,3.87,0,0,1,12.55,59.8Z"/><path class="cls-5" d="M15.62,69.94a2.78,2.78,0,0,1-1,.28c-2.05.15-3.78-2.06-3.88-4.92a6.56,6.56,0,0,1,.94-3.7c-1.55.71-2.65,2.79-2.56,5.18C9.25,69.64,11,71.84,13,71.7A3.47,3.47,0,0,0,15.62,69.94Z"/><path class="cls-6" d="M56.86,77.31c.22,6.52-4.4,12.15-10.32,12.59s-10.9-4.51-11.13-11,4.41-12.16,10.33-12.59S56.64,70.79,56.86,77.31Z"/><path class="cls-5" d="M42.27,72.44c5.92-.43,10.9,4.5,11.12,11a13,13,0,0,1-.34,3.44,12.69,12.69,0,0,0,3.81-9.59c-.22-6.52-5.2-11.46-11.12-11-4.85.35-8.82,4.19-10,9.15A10.46,10.46,0,0,1,42.27,72.44Z"/><path class="cls-5" d="M56,88.64A16.63,16.63,0,0,1,47.5,91.7c-8.59.62-15.77-5.43-16-13.51a14.77,14.77,0,0,1,4.1-10.57A15.09,15.09,0,0,0,29,80.33c.28,8.08,7.45,14.13,16,13.51A16.65,16.65,0,0,0,56,88.64Z"/><path class="cls-6" d="M49.56,41.84c-1,.28-2-.59-2.4-1.94s.11-2.7,1.07-3,2,.58,2.41,1.94S50.52,41.55,49.56,41.84Z"/><path class="cls-5" d="M51.17,41.43a2,2,0,0,1-1.21,1c-1.3.39-2.75-.79-3.25-2.63a4.31,4.31,0,0,1,0-2.39,4.1,4.1,0,0,0-.25,3c.5,1.84,2,3,3.26,2.63A2.3,2.3,0,0,0,51.17,41.43Z"/><path class="cls-5" d="M48,37.81c1-.28,2,.58,2.4,1.94a3.43,3.43,0,0,1,.11,1.09,3.14,3.14,0,0,0,.09-2c-.37-1.36-1.45-2.23-2.41-1.94a2,2,0,0,0-1.18,1.89A1.63,1.63,0,0,1,48,37.81Z"/><path class="cls-5" d="M63.77,56.35a2.18,2.18,0,0,0-1.83-1.68,2.5,2.5,0,0,1,.64,1.11,2.19,2.19,0,0,1-1.28,2.74,1.85,1.85,0,0,1-.61.07,1.8,1.8,0,0,0,1.8.5A2.18,2.18,0,0,0,63.77,56.35Z"/><path class="cls-5" d="M59.69,58.41c-.82-2.36.17-4.88,2.19-5.63a3.49,3.49,0,0,1,1.09-.2,3.45,3.45,0,0,0-2.37,0c-2,.75-3,3.27-2.2,5.63a4.33,4.33,0,0,0,4,3.1A4.59,4.59,0,0,1,59.69,58.41Z"/><path class="cls-5" d="M74.29,77.6a1.64,1.64,0,0,1-1.11.35,1.3,1.3,0,0,1-1.39-1.27.93.93,0,0,1,.1-.37,1.14,1.14,0,0,0-.44.79,1.3,1.3,0,0,0,1.39,1.27A1.55,1.55,0,0,0,74.29,77.6Z"/><path class="cls-5" d="M78.92,50.54a1.38,1.38,0,0,1,.91,1.78A1.23,1.23,0,0,1,79,53a1.29,1.29,0,0,0,.45-2.54,1.69,1.69,0,0,0-1.17,0A1.59,1.59,0,0,1,78.92,50.54Z"/><path class="cls-5" d="M85,69.7a1.41,1.41,0,0,0-.41-2,1.7,1.7,0,0,0-1-.34,1.56,1.56,0,0,1,.5.25,1.41,1.41,0,0,1,.41,2,1.34,1.34,0,0,1-1.11.47A1.43,1.43,0,0,0,85,69.7Z"/><path class="cls-5" d="M87.06,46.63c.88-.4,2.13.54,2.79,2.09A5,5,0,0,1,90.2,50a4.16,4.16,0,0,0-.29-2.6c-.66-1.55-1.91-2.49-2.79-2.1-.65.29-.91,1.21-.75,2.3A1.34,1.34,0,0,1,87.06,46.63Z"/><path class="cls-5" d="M13.36,33c1.49-2.55,1.82-5.12.71-5.7a1,1,0,0,0-.49-.08c.21.76-.18,2.87-1.5,5.13A8.83,8.83,0,0,1,8.18,36a1,1,0,0,0,.48.59C9.76,37.13,11.86,35.55,13.36,33Z"/><path class="cls-2" d="M12.1,32.31c-1.45,2.47-3.13,4.2-3.74,3.86s.05-2.61,1.5-5.08,3.12-4.2,3.74-3.86S13.55,29.84,12.1,32.31Z"/><path class="cls-5" d="M12.1,32.31c.14-.24.27-.48.39-.71-1.33,2.08-2.75,3.47-3.31,3.17s-.06-2.19,1.11-4.37c-.15.22-.29.45-.43.69-1.45,2.47-2.12,4.75-1.5,5.08S10.65,34.78,12.1,32.31Z"/><path class="cls-5" d="M82.78,70.36a2.15,2.15,0,0,1-.61-3,2,2,0,0,1,1.65-.75,2,2,0,0,0-1.69,3.69,2.51,2.51,0,0,0,1.5.49A2.47,2.47,0,0,1,82.78,70.36Z"/></g></g></svg>