<svg xmlns="http://www.w3.org/2000/svg" viewBox="0 0 241.82 249.51"><defs><style>.cls-1{isolation:isolate;}.cls-2{fill:#ffda72;}.cls-3{fill:#f29120;}.cls-4{fill:#f7ad40;}.cls-5{fill:#fdd583;mix-blend-mode:multiply;}</style></defs><g class="cls-1"><g id="Warstwa_1" data-name="Warstwa 1"><path class="cls-2" d="M226.77,90.65c18,61-14.72,125.77-73.18,144.61S33.1,219.89,15.05,158.86,29.77,33.09,88.24,14.25,208.73,29.62,226.77,90.65Z"/><path class="cls-3" d="M141.15,194.61c8-3.41,16.1-6.85,24.67-8,4.19-.56,9.35,0,11.25,3.92,1.47,3,.15,6.88-2.21,9.23s-5.53,3.52-8.61,4.64l-37.56,13.65c-7.7,2.8-22.45,4.86-13.87-7.19C120.66,202.67,132.45,198.32,141.15,194.61Z"/><path class="cls-4" d="M45.1,195.31c33.55-25.25,67.56-52.85,108.12-61.35,25.94-5.44,55.27-3.57,78.39-14.56a120.15,120.15,0,0,0-4.84-28.75c-1.05-3.57-2.27-7-3.62-10.41L194.56,91.76c-7.07,2.85-14.49,5.75-22,4.87s-15.11-6.86-15.27-14.78c-.08-3.87,1.57-7.54,3.34-10.95a122.5,122.5,0,0,1,29.09-36.69l.07-.05a110.48,110.48,0,0,0-26.1-16.08A84.11,84.11,0,0,0,149.6,31.3C129.74,54.9,122.67,89.07,99.43,109,81.71,124.24,57.6,128.47,38,140.91a88.3,88.3,0,0,0-22.18,20.31,116.35,116.35,0,0,0,21.61,39.54C40.05,199.06,42.61,197.18,45.1,195.31Z"/><path class="cls-3" d="M44.28,125.11c6-3,12.29-5.32,18.36-8.16A133.4,133.4,0,0,0,112,76.78c1.55-2,3.09-4.23,3.58-6.79,1.18-6-4.18-11.8-10-13s-11.72,1-17.18,3.35a331.75,331.75,0,0,0-77.1,47.29,119.69,119.69,0,0,0,1,39.77C23.58,140.52,35.34,129.49,44.28,125.11Z"/><path class="cls-3" d="M111.81,33A6.85,6.85,0,0,0,115.6,38c4.16,2.17,9.37.89,13.11-2s6.3-7.1,8.66-11.28C139,21.77,144,17,147.5,12.48a106.5,106.5,0,0,0-19.36-3.13A85.89,85.89,0,0,0,113.64,27C112.54,28.84,111.54,30.9,111.81,33Z"/><path class="cls-4" d="M194.36,142.32c-27.72,3.85-56.7,5.11-81.43,18.73-14.85,8.18-27.25,20.37-39.46,32.4L54.36,212.3c-.59.58-1.64,1.47-2.93,2.55a110.63,110.63,0,0,0,26.34,16.4c12.24-8,20.23-22.49,31.4-32.58,9.73-8.79,21.84-14.14,33.85-19q25.75-10.35,52.29-18.4c11.24-3.41,23-6.78,33.77-11.61a118.87,118.87,0,0,0,2.16-14.25Q213,139.71,194.36,142.32Z"/><path class="cls-3" d="M19.14,79.13c6.92-.34,15-6.94,19.73-9.64A295.91,295.91,0,0,0,96,27.32c4.91-4.61,9.93-10,11.43-17.34a108.12,108.12,0,0,0-19.22,4.27C56,24.66,31.52,49.08,19.14,79.13Z"/><path class="cls-5" d="M205.68,50.32a121.08,121.08,0,0,1,2.87,26.1c0,63.86-49.61,115.64-110.79,115.64-34,0-64.45-16-84.77-41.21,11.34,51.29,55.33,89.55,107.92,89.55,61.19,0,110.79-51.78,110.79-115.64A118.22,118.22,0,0,0,205.68,50.32Z"/></g></g></svg>