<svg xmlns="http://www.w3.org/2000/svg" viewBox="0 0 103.06 100.86"><defs><style>.cls-1{isolation:isolate;}.cls-2{fill:#fdeb07;}.cls-3{fill:#fdf936;}.cls-4{fill:#eedc06;}.cls-5{fill:#b2a92e;mix-blend-mode:multiply;}</style></defs><g class="cls-1"><g id="Warstwa_1" data-name="Warstwa 1"><path class="cls-2" d="M90,40.76c6.15,20.81-5,42.9-25,49.32S24,84.84,17.8,64s5-42.9,25-49.32S83.86,19.94,90,40.76Z"/><path class="cls-3" d="M60.81,76.22a32.77,32.77,0,0,1,8.42-2.73c1.43-.19,3.19,0,3.84,1.34A2.88,2.88,0,0,1,72.31,78a7.66,7.66,0,0,1-2.93,1.58L56.56,84.22c-2.62,1-7.65,1.65-4.73-2.46C53.83,79,57.85,77.48,60.81,76.22Z"/><path class="cls-4" d="M28.05,76.46c11.45-8.62,23.05-18,36.88-20.93,8.85-1.85,18.85-1.22,26.74-5A41.45,41.45,0,0,0,90,40.76c-.36-1.22-.78-2.4-1.24-3.55L79,41.14c-2.41,1-4.94,2-7.51,1.66s-5.16-2.34-5.21-5A7.82,7.82,0,0,1,67.45,34a41.73,41.73,0,0,1,9.92-12.51l0,0A37.55,37.55,0,0,0,68.49,16a28.44,28.44,0,0,0-4.79,4.52c-6.78,8-9.19,19.7-17.12,26.5-6,5.19-14.26,6.64-20.95,10.88a30.22,30.22,0,0,0-7.57,6.93,39.86,39.86,0,0,0,7.37,13.48C26.33,77.73,27.2,77.09,28.05,76.46Z"/><path class="cls-3" d="M27.77,52.51c2.06-1,4.2-1.81,6.27-2.78A45.62,45.62,0,0,0,50.87,36a5.83,5.83,0,0,0,1.22-2.32c.4-2.06-1.43-4-3.41-4.42s-4,.34-5.86,1.14A113.78,113.78,0,0,0,16.53,46.56a40.79,40.79,0,0,0,.32,13.57C20.71,57.77,24.72,54,27.77,52.51Z"/><path class="cls-3" d="M50.81,21.1a2.34,2.34,0,0,0,1.29,1.69,4.28,4.28,0,0,0,4.47-.68,12.1,12.1,0,0,0,3-3.85c.57-1,2.25-2.63,3.46-4.17A36.47,36.47,0,0,0,56.38,13a29.31,29.31,0,0,0-5,6A3.24,3.24,0,0,0,50.81,21.1Z"/><path class="cls-4" d="M79,58.38c-9.45,1.32-19.33,1.74-27.77,6.39-5.07,2.79-9.3,7-13.46,11l-6.52,6.43c-.2.2-.56.5-1,.87a38.2,38.2,0,0,0,9,5.6C43.37,86,46.1,81,49.9,77.6c3.33-3,7.45-4.82,11.55-6.47q8.79-3.52,17.84-6.28a97.29,97.29,0,0,0,11.52-4A39,39,0,0,0,91.54,56Q85.3,57.5,79,58.38Z"/><path class="cls-3" d="M19.2,36.83c2.36-.12,5.1-2.37,6.73-3.29A100.85,100.85,0,0,0,45.42,19.16c1.68-1.58,3.39-3.42,3.9-5.92a36.5,36.5,0,0,0-6.55,1.46A38.31,38.31,0,0,0,19.2,36.83Z"/><path class="cls-5" d="M82.82,27a40.73,40.73,0,0,1,1,8.9C83.8,57.69,66.88,75.35,46,75.35A37.1,37.1,0,0,1,17.1,61.29C21,78.79,36,91.84,53.91,91.84c20.87,0,37.79-17.66,37.79-39.45A40.3,40.3,0,0,0,82.82,27Z"/></g></g></svg>