<svg id="Warstwa_1" data-name="Warstwa 1" xmlns="http://www.w3.org/2000/svg" viewBox="0 0 658.29 100.09"><defs><style>.cls-1{fill:#0a0203;}</style></defs><path class="cls-1" d="M83.39,44.85V102.3H69.49V44.85Z" transform="translate(-8.62 -2.78)"/><path class="cls-1" d="M219.34,45.25V102.3h-13.9V66.63L193.09,102.3h-12L168.63,66.55V102.3h-13.9v-57h17L187.24,85l15.2-39.74Z" transform="translate(-8.62 -2.78)"/><path class="cls-1" d="M272.2,47.73a27.56,27.56,0,0,1,10.45,10.49,30.12,30.12,0,0,1,3.81,15.15,30,30,0,0,1-3.86,15.2,27.65,27.65,0,0,1-10.48,10.52,30.36,30.36,0,0,1-29.34,0A27.72,27.72,0,0,1,232.3,88.57a30.08,30.08,0,0,1-3.86-15.2,29.85,29.85,0,0,1,3.86-15.15,27.85,27.85,0,0,1,10.48-10.49,30.51,30.51,0,0,1,29.42,0ZM246.6,61.31q-4,4.43-4,12.06t4,12a15.35,15.35,0,0,0,21.66,0q4.07-4.47,4.06-12t-4-12q-4-4.47-10.85-4.47T246.6,61.31Z" transform="translate(-8.62 -2.78)"/><path class="cls-1" d="M346.52,102.3h-13.9L309.38,67V102.3h-13.9V44.85h13.9l23.24,35.59V44.85h13.9Z" transform="translate(-8.62 -2.78)"/><path class="cls-1" d="M572.32,44.85V78c0,3.79.86,6.69,2.56,8.69s4.19,3,7.44,3,5.73-1,7.43-3,2.56-4.9,2.56-8.69V44.85h13.9V78A27.34,27.34,0,0,1,603,91.7a20.63,20.63,0,0,1-8.65,8.37,26.85,26.85,0,0,1-12.4,2.8,26,26,0,0,1-12.19-2.76,19.64,19.64,0,0,1-8.29-8.37,28.82,28.82,0,0,1-3-13.73V44.85Z" transform="translate(-8.62 -2.78)"/><path class="cls-1" d="M643.75,73l23.16,29.33H650.09l-19.5-25.76V102.3h-13.9V44.85h13.9V70.12l19.66-25.27h16.66Z" transform="translate(-8.62 -2.78)"/><path class="cls-1" d="M415.8,34.43a26.54,26.54,0,0,1,7.69,16.2,26.69,26.69,0,0,1,23.32-23.89,26.58,26.58,0,0,1-15.7-7.62,26.66,26.66,0,0,1-7.7-16.34,26.55,26.55,0,0,1-7.67,16.13,26.65,26.65,0,0,1-17.1,7.76A26.55,26.55,0,0,1,415.8,34.43Z" transform="translate(-8.62 -2.78)"/><polygon class="cls-1" points="118.48 42.48 102.47 42.48 81.42 99.52 96.05 99.52 103.22 78.47 103.2 78.47 107.41 66.19 110.44 57.35 115.06 71 115.06 71 124.74 99.52 139.53 99.52 118.48 42.48"/><path class="cls-1" d="M537.14,79.71a17.63,17.63,0,0,0,10-6,16.67,16.67,0,0,0,3.46-10.65,18.49,18.49,0,0,0-2.36-9.38,16.33,16.33,0,0,0-7.07-6.47,25.63,25.63,0,0,0-11.54-2.35H505.93V102.3h13.9V56.55h8.61q4.06,0,6.06,2a7.19,7.19,0,0,1,2,5.36,7.06,7.06,0,0,1-2,5.41q-1.95,1.83-6.1,1.83H523v9.5l12.43,21.7h15.36Z" transform="translate(-8.62 -2.78)"/><path class="cls-1" d="M405.39,58.5A24.9,24.9,0,0,0,395,48.43a33.66,33.66,0,0,0-16-3.58h-21.7V57H377.8q8.13,0,12.64,4.31T395,73.45q0,7.81-4.51,12.11T377.8,89.87h-8.29V76H357.32V102.3H379a33.26,33.26,0,0,0,16-3.65,25.37,25.37,0,0,0,10.4-10.2,30.49,30.49,0,0,0,3.62-15A30.27,30.27,0,0,0,405.39,58.5Z" transform="translate(-8.62 -2.78)"/><path class="cls-1" d="M56.69,58.5A24.9,24.9,0,0,0,46.33,48.43a33.66,33.66,0,0,0-16-3.58H8.62V57H29.1q8.13,0,12.64,4.31t4.51,12.1q0,7.81-4.51,12.11T29.1,89.87H20.81V76H8.62V102.3h21.7a33.26,33.26,0,0,0,16-3.65,25.37,25.37,0,0,0,10.4-10.2,30.49,30.49,0,0,0,3.62-15A30.27,30.27,0,0,0,56.69,58.5Z" transform="translate(-8.62 -2.78)"/><path class="cls-1" d="M492.93,58.5a24.9,24.9,0,0,0-10.36-10.07,33.66,33.66,0,0,0-16-3.58H444.87V57h20.47q8.13,0,12.64,4.31t4.51,12.1q0,7.81-4.51,12.11t-12.64,4.31h-8.28V76H444.87V102.3h21.69a33.24,33.24,0,0,0,16-3.65,25.37,25.37,0,0,0,10.4-10.2,30.49,30.49,0,0,0,3.62-15A30.27,30.27,0,0,0,492.93,58.5Z" transform="translate(-8.62 -2.78)"/></svg>
