<svg xmlns="http://www.w3.org/2000/svg" viewBox="0 0 167.1 171.21"><defs><style>.cls-1{isolation:isolate;}.cls-2{fill:#c2c1c2;}.cls-3{fill:#d6d6d5;}.cls-4{fill:#f6f5f5;}.cls-5{fill:#26204f;mix-blend-mode:multiply;opacity:0.15;}.cls-6{fill:#e2e1e1;}</style></defs><g class="cls-1"><g id="Warstwa_1" data-name="Warstwa 1"><path class="cls-2" d="M68.25,144.61l6,.76a8.82,8.82,0,0,1,7.39,9.88L81.06,160a8.6,8.6,0,0,1-9.46,7.72l-6-.76a8.82,8.82,0,0,1-7.4-9.88l.56-4.76A8.59,8.59,0,0,1,68.25,144.61Z"/><path class="cls-2" d="M133.22,112.91l7.85-21.41a.51.51,0,0,1,.67-.31l19.18,7.67a.54.54,0,0,1,.3.69L153.37,121a.53.53,0,0,1-.67.31l-19.19-7.67A.56.56,0,0,1,133.22,112.91Z"/><path class="cls-3" d="M143.59,38.87l3.12,4.37a9.57,9.57,0,0,1-1.81,13l-3,2.37a8.67,8.67,0,0,1-12.44-1.9l-3.12-4.36a9.57,9.57,0,0,1,1.81-13l3-2.37A8.67,8.67,0,0,1,143.59,38.87Z"/><path class="cls-3" d="M74.49,8.69l8.45.3a7.49,7.49,0,0,1,7,7.85l-.25,7.34A7.42,7.42,0,0,1,82.2,31.5l-8.45-.31a7.48,7.48,0,0,1-7-7.85L67,16A7.43,7.43,0,0,1,74.49,8.69Z"/><path class="cls-3" d="M39.17,53.18,36,57.43A10.51,10.51,0,0,1,20.8,59.28h0A11.63,11.63,0,0,1,19,43.47l3.22-4.25A10.52,10.52,0,0,1,37.4,37.36h0A11.64,11.64,0,0,1,39.17,53.18Z"/><path class="cls-4" d="M156.09,89.39c0,42.21-32.78,76.43-73.23,76.43S9.64,131.6,9.64,89.39,42.42,13,82.86,13,156.09,47.17,156.09,89.39Z"/><path class="cls-5" d="M82.86,134.13c-35.23,0-64.64-26-71.64-60.59A80.15,80.15,0,0,0,9.64,89.39c0,42.21,32.78,76.43,73.22,76.43s73.23-34.22,73.23-76.43a80.15,80.15,0,0,0-1.58-15.85C147.51,108.15,118.1,134.13,82.86,134.13Z"/><path class="cls-6" d="M65.23,45.38c1.24,3.11-1.33,7.18-5.73,9.1s-9,.94-10.23-2.16,1.33-7.19,5.73-9.1S64,42.27,65.23,45.38Z"/><path class="cls-6" d="M46.37,55.09c-1.87-4.69,2-10.82,8.64-13.71,4.91-2.14,10-1.89,13,.28-2.8-3.07-8.56-3.73-14.15-1.3-6.65,2.89-10.51,9-8.64,13.71a6.64,6.64,0,0,0,2.39,3A6.37,6.37,0,0,1,46.37,55.09Z"/><path class="cls-5" d="M65.23,45.38a4.33,4.33,0,0,0-1.45-1.88c.84,3-1.68,6.83-5.88,8.65-3.33,1.45-6.76,1.25-8.77-.28a3.88,3.88,0,0,0,.14.45c1.24,3.1,5.82,4.07,10.23,2.16S66.47,48.49,65.23,45.38Z"/><path class="cls-6" d="M90.45,27.77c.19,1.86-2.22,3.66-5.4,4S79.14,31,79,29.1s2.21-3.65,5.39-4S90.25,25.92,90.45,27.77Z"/><path class="cls-6" d="M105.58,55.18c-1.41-.84-1.69-3.13-.74-5.32-.14.2-.27.39-.39.6-1.31,2.37-1.11,5,.43,6s3.87-.22,5.18-2.59a5.44,5.44,0,0,0,.3-.65C109,55.14,107,56,105.58,55.18Z"/><path class="cls-5" d="M76.77,30c-.31-3,3.55-5.85,8.64-6.44a13.92,13.92,0,0,1,5.81.5,12.81,12.81,0,0,0-7.09-1c-5.09.59-8.95,3.47-8.64,6.44.18,1.71,1.72,3.08,4,3.81A4.41,4.41,0,0,1,76.77,30Z"/><path class="cls-5" d="M90.45,27.77c-.17-1.6-2.24-2.72-4.85-2.75,1.44.45,2.43,1.32,2.54,2.4.2,1.86-2.22,3.66-5.39,4a10.83,10.83,0,0,1-1.26.06,8.71,8.71,0,0,0,3.56.29C88.23,31.43,90.64,29.63,90.45,27.77Z"/><path class="cls-6" d="M29.67,73c2.74,1.78,2.94,6.59.45,10.75s-6.71,6.07-9.45,4.28-2.94-6.6-.46-10.75S26.93,71.23,29.67,73Z"/><path class="cls-5" d="M31.25,70.89c2.92,1.9,3.54,6.55,1.75,11.1,2.5-4.57,2.18-9.7-.8-11.65a5.57,5.57,0,0,0-5.45-.09A5.64,5.64,0,0,1,31.25,70.89Z"/><path class="cls-5" d="M18.83,89.65c-3.75-2.45-4.28-8.73-1.44-14.52-.3.42-.6.86-.87,1.32-3.68,6.15-3.38,13.28.67,15.93s10.32-.2,14-6.35c.27-.46.52-.94.75-1.41C28.21,89.84,22.57,92.09,18.83,89.65Z"/><path class="cls-5" d="M29.67,73c-2.74-1.79-7,.13-9.46,4.28a14,14,0,0,0-1,2c2.49-2.88,5.86-4,8.17-2.51s2.81,5.16,1.42,8.76a11.79,11.79,0,0,0,1.28-1.77C32.61,79.61,32.41,74.8,29.67,73Z"/><path class="cls-6" d="M51.05,103.43c5.93,3.87,8.28,11.1,5.25,16.16s-10.28,6-16.21,2.15-8.28-11.09-5.25-16.15S45.13,99.57,51.05,103.43Z"/><path class="cls-5" d="M34.84,112.68c3-5.06,10.29-6,16.21-2.16a14.72,14.72,0,0,1,6,7.56c1.82-4.9-.59-11.15-6-14.65-5.92-3.86-13.18-2.9-16.21,2.16a10.3,10.3,0,0,0-.71,8.6A9.44,9.44,0,0,1,34.84,112.68Z"/><path class="cls-5" d="M63.33,114a13.58,13.58,0,0,1-1.64,7.25c-4.08,7.38-14.4,9.14-23,3.92a20.6,20.6,0,0,1-9.29-11.78c.26,5.84,3.87,11.91,9.91,15.55,8.65,5.21,19,3.45,23-3.92A14.45,14.45,0,0,0,63.33,114Z"/><path class="cls-5" d="M56.56,146.92c2.33-3.87,8.5-4.22,13.8-.76,3.65,2.38,5.93,5.94,6.23,9.2.29-3.58-2.08-7.82-6.23-10.53-5.3-3.45-11.47-3.11-13.8.77a6.6,6.6,0,0,0-.84,4.07A6.45,6.45,0,0,1,56.56,146.92Z"/><path class="cls-5" d="M72.92,152.31a4.71,4.71,0,0,1-.54,1.54c-1.71,2.85-6.25,3.1-10.15.56a10.76,10.76,0,0,1-4-4.7c-.5,2.73,1.24,6.12,4.5,8.24,3.9,2.54,8.44,2.29,10.15-.56A5.62,5.62,0,0,0,72.92,152.31Z"/><path class="cls-6" d="M121.18,104.35c8.88,5.79,12.06,17.19,7.1,25.47s-16.16,10.29-25,4.5-12.06-17.19-7.11-25.46S112.31,98.57,121.18,104.35Z"/><path class="cls-5" d="M101.09,119.21c5-8.28,16.17-10.29,25-4.5a21.19,21.19,0,0,1,4.25,3.66,20.67,20.67,0,0,0-9.2-14c-8.87-5.78-20.08-3.77-25,4.51-4,6.77-2.65,15.63,2.85,21.8A17.06,17.06,0,0,1,101.09,119.21Z"/><path class="cls-5" d="M135.44,116.08a27.22,27.22,0,0,1-3.86,14.15c-7.18,12-21.92,15.89-32.92,8.71a23.88,23.88,0,0,1-10.23-15.31A24.54,24.54,0,0,0,99.22,144.2c11,7.17,25.74,3.27,32.92-8.72A27.06,27.06,0,0,0,135.44,116.08Z"/><path class="cls-6" d="M67.22,81c-.52,1.55-2.68,2.17-4.82,1.39s-3.48-2.66-3-4.21,2.68-2.16,4.83-1.38S67.73,79.42,67.22,81Z"/><path class="cls-5" d="M68.18,78.44A3.43,3.43,0,0,1,68.45,81c-.7,2.1-3.62,2.94-6.54,1.88a7.08,7.08,0,0,1-3.17-2.23,6.65,6.65,0,0,0,3.74,3.11c2.91,1.06,5.84.22,6.53-1.88A3.74,3.74,0,0,0,68.18,78.44Z"/><path class="cls-5" d="M60.45,79.24c.51-1.55,2.67-2.17,4.82-1.39a5.76,5.76,0,0,1,1.54.87,5.07,5.07,0,0,0-2.55-2C62.11,76,60,76.6,59.43,78.14a3.2,3.2,0,0,0,1.42,3.35A2.59,2.59,0,0,1,60.45,79.24Z"/><path class="cls-5" d="M99.77,75.61a3.54,3.54,0,0,0-3.94.87,4.14,4.14,0,0,1,2.07.19,3.57,3.57,0,0,1,2.45,4.26,3,3,0,0,1-.48.88,3,3,0,0,0,2.35-1.94A3.56,3.56,0,0,0,99.77,75.61Z"/><path class="cls-5" d="M98.69,83c-3.89-1.11-6.33-4.77-5.43-8.17A5.6,5.6,0,0,1,94,73.16a5.66,5.66,0,0,0-2.2,3.16c-.9,3.4,1.53,7.05,5.43,8.17A7,7,0,0,0,105.12,82,7.47,7.47,0,0,1,98.69,83Z"/><path class="cls-5" d="M137.83,81.45a2.76,2.76,0,0,1-.56,1.8,2.13,2.13,0,0,1-3,.67,1.53,1.53,0,0,1-.4-.48,1.79,1.79,0,0,0,.64,1.32,2.13,2.13,0,0,0,3-.66A2.53,2.53,0,0,0,137.83,81.45Z"/><path class="cls-5" d="M106.17,50.06a2.26,2.26,0,0,1,3.22.44,2.07,2.07,0,0,1,.17,1.69,2.1,2.1,0,0,0-3-3,2.79,2.79,0,0,0-1.14,1.53A2.91,2.91,0,0,1,106.17,50.06Z"/><path class="cls-5" d="M137.26,59.92a2.28,2.28,0,0,0-3-1.3,2.66,2.66,0,0,0-1.34,1,2.8,2.8,0,0,1,.8-.43,2.28,2.28,0,0,1,3,1.3,2.1,2.1,0,0,1-.41,1.9A2.26,2.26,0,0,0,137.26,59.92Z"/><path class="cls-5" d="M108.57,35.58c.3-1.54,2.71-2.32,5.39-1.75a7.68,7.68,0,0,1,2,.69,6.65,6.65,0,0,0-3.73-2c-2.67-.57-5.09.22-5.39,1.76-.22,1.13.77,2.34,2.35,3.13A2.17,2.17,0,0,1,108.57,35.58Z"/><path class="cls-5" d="M21.69,120.85c-2-4.37-5.1-7.19-6.91-6.26a1.79,1.79,0,0,0-.57.58c1.2.43,3.65,2.91,5.42,6.78a14.18,14.18,0,0,1,1.15,8.54A1.52,1.52,0,0,0,22,130.4C23.83,129.49,23.69,125.22,21.69,120.85Z"/><path class="cls-2" d="M19.6,121.88c1.93,4.23,2.67,8.07,1.65,8.58s-3.42-2.5-5.36-6.73-2.67-8.07-1.65-8.58S17.67,117.65,19.6,121.88Z"/><path class="cls-5" d="M19.6,121.88c-.19-.41-.39-.8-.58-1.19,1.53,3.73,2.05,6.9,1.13,7.37s-3-2-4.78-5.55c.17.4.33.81.52,1.22,1.94,4.23,4.33,7.24,5.36,6.73S21.53,126.11,19.6,121.88Z"/><path class="cls-5" d="M136.13,63.41a3.5,3.5,0,0,1-4.6-2,3.33,3.33,0,0,1,.54-2.9,3.31,3.31,0,0,0,3.34,5.7,4.17,4.17,0,0,0,2.05-1.54A4.11,4.11,0,0,1,136.13,63.41Z"/></g></g></svg>