<svg xmlns="http://www.w3.org/2000/svg" viewBox="0 0 77.2 66.8"><defs><style>.cls-1{isolation:isolate;}.cls-12,.cls-2,.cls-4{fill:#4098f4;}.cls-3,.cls-9{fill:#1399f4;}.cls-4{mix-blend-mode:screen;}.cls-5{fill:#1582ad;}.cls-10,.cls-12,.cls-5,.cls-7,.cls-8,.cls-9{mix-blend-mode:multiply;}.cls-6,.cls-7{fill:#50a3f3;}.cls-8{fill:#3f81c0;}.cls-10{fill:#1078c0;}.cls-11{fill:#747bfc;}.cls-11,.cls-14{mix-blend-mode:color-dodge;}.cls-13{fill:#f7f7f7;}.cls-14{fill:#a6c3f7;}</style></defs><g class="cls-1"><g id="Layer_1" data-name="Layer 1"><polygon class="cls-2" points="49.12 23.59 28.8 23.59 28.24 23.52 2.38 20.02 36.28 62.13 38.68 65.11 38.69 65.11 38.69 65.11 41.09 62.13 74.92 20.11 49.12 23.59"/><polygon class="cls-3" points="54.64 1.55 49.07 1.55 28.3 1.55 22.73 1.55 2.38 20.02 28.8 23.59 49.12 23.59 74.92 20.11 74.99 20.02 54.64 1.55"/><polygon class="cls-4" points="16.05 21.87 2.38 20.02 36.28 62.13 38.68 65.11 38.68 65.11 16.05 21.87"/><path class="cls-5" d="M41.09,62.13l33.83-42-25.8,3.48h0c-4.26,17-9.57,38.2-10.44,41.52h0Z"/><path class="cls-4" d="M41.09,62.13l33.83-42L63,21.72S39.55,61.79,38.68,65.11h0Z"/><polygon class="cls-6" points="38.68 65.11 38.69 65.11 38.68 65.11 38.68 65.11"/><polygon class="cls-7" points="38.68 65.11 28.24 23.52 25.34 48.53 38.68 65.11"/><polygon class="cls-8" points="38.68 65.11 49.12 23.59 52.49 47.97 38.68 65.11"/><polygon class="cls-9" points="2.38 20.02 38.52 32.36 74.92 20.11 49.12 23.59 28.24 23.52 2.38 20.02"/><polygon class="cls-10" points="51.42 14.22 49.07 1.89 28.3 1.89 25.1 13.99 2.38 20.36 28.8 23.93 49.12 23.93 74.92 20.45 74.99 20.36 51.42 14.22"/><polygon class="cls-11" points="23.2 2.23 28.24 23.52 49.12 23.59 53.84 2.23 23.2 2.23"/><polygon class="cls-4" points="22.73 1.55 16.05 21.87 37.67 2.23 59.29 21.87 54.64 1.55 22.73 1.55"/><polygon class="cls-12" points="22.73 1.55 27.85 21.87 37.67 2.23 47.83 21.87 54.64 1.55 22.73 1.55"/><polygon class="cls-13" points="50.69 23.38 74.16 20.21 50.89 21.84 52.83 6.8 48.19 23.52 48.19 23.52 27.85 21.87 23.2 2.23 26.47 21.87 2.38 20.02 26.23 24.07 38.68 65.11 28.47 24.33 48.17 23.63 43.01 47.97 50.69 23.38"/><path class="cls-14" d="M3.58,20,22.34,2.75A51.17,51.17,0,0,1,3.58,20Z"/><path class="cls-14" d="M74.16,20,55.41,2.75A51.19,51.19,0,0,0,74.16,20Z"/></g></g></svg>