<svg xmlns="http://www.w3.org/2000/svg" viewBox="0 0 313.37 192.28"><defs><style>.cls-1{fill:#739099;}.cls-2{fill:#ccc;}.cls-3{fill:none;stroke:#ccc;stroke-miterlimit:10;stroke-width:2px;}.cls-4{fill:#284256;}.cls-5{fill:#3f617a;}.cls-6{fill:#2180d6;}.cls-7{fill:#fff;}.cls-8{fill:#ffec00;}</style></defs><g id="Objects"><path class="cls-1" d="M62,113.87S74,160,128.3,176c61.63,18.13,96.95-12,105.72-21.66S62,113.87,62,113.87Z"/><path class="cls-2" d="M5.74,75.17c10.63-6.85,44.41-13.61,167.14,13.15,102.26,22.3,124.74,42.56,136.53,59.92-.72,2.55-57,36.06-167.71,13.87C44,142.52,3.61,82.21,5.74,75.17Z"/><line class="cls-3" x1="138.05" y1="43.69" x2="129.63" y2="16.59"/><line class="cls-3" x1="215.76" y1="64.81" x2="237.99" y2="40.1"/><path class="cls-4" d="M140.42,109.21c32,9.29,93.27,7.6,98.33,5.15s-3.12-64.13-64.93-75.29S79.75,71.39,79.94,76.75,107.44,99.65,140.42,109.21Z"/><path class="cls-5" d="M100.49,74.64c2.3-15.51,34.92-37.09,68.71-30.95s49.42,25.11,56.16,44.63-40.18,21-69.72,14.3S98.79,86.07,100.49,74.64Z"/><circle class="cls-6" cx="24.53" cy="87.18" r="5.23"/><circle class="cls-6" cx="51.18" cy="107.85" r="5.23"/><circle class="cls-6" cx="87.44" cy="126.98" r="5.23"/><circle class="cls-6" cx="134.86" cy="142.52" r="5.23"/><circle class="cls-6" cx="188.26" cy="151.27" r="5.23"/><circle class="cls-6" cx="239.99" cy="152.24" r="5.23"/><circle class="cls-6" cx="287.89" cy="146.04" r="5.23"/><path class="cls-7" d="M201,57.24c16.29,13-.4,33.08-21.13,19.53S181.09,41.3,201,57.24Z"/><circle class="cls-8" cx="129.63" cy="16.59" r="10.46"/><circle class="cls-8" cx="237.99" cy="40.1" r="10.46"/><path class="cls-7" d="M309.41,148.24l-.82.58c-.56.36-1.33,1-2.44,1.62a68.8,68.8,0,0,1-9.9,5.05A129.51,129.51,0,0,1,279.88,161c-6.44,1.74-13.82,3.34-21.92,4.7s-16.94,2.49-26.32,3.35c-4.68.42-9.51.78-14.45,1l-1.86.09-.93,0h-.35l0,0-.18.12c-1.08.66-2.18,1.29-3.31,1.88l-1.7.87-1.74.81c-1.15.56-2.34,1-3.54,1.53a102.38,102.38,0,0,1-15,4.75,107.47,107.47,0,0,1-15.91,2.4A115.93,115.93,0,0,1,140,180.44a130,130,0,0,1-31-10.56,91.81,91.81,0,0,1-25.56-18.76,56.49,56.49,0,0,1-4.9-6c-.36-.53-.73-1-1.07-1.59l-.25-.41-.11-.19,0,0-.72-.46-3.14-2-6.18-4c-1-.65-2-1.28-3-1.95l-2.93-2c-3.87-2.68-7.71-5.19-11.23-7.89l-5.24-3.88c-1.73-1.27-3.32-2.63-4.94-3.9s-3.18-2.53-4.68-3.8l-4.34-3.8-2.08-1.83-1.95-1.87L22.92,102A106,106,0,0,1,11.78,88.81,43.82,43.82,0,0,1,6.57,79c-.18-.62-.38-1.15-.49-1.63s-.19-.88-.25-1.21l-.08-.74v-.26l0,.26.09.74c.07.32.17.72.28,1.2s.32,1,.52,1.61A43.18,43.18,0,0,0,12,88.64a106.31,106.31,0,0,0,11.3,13l3.76,3.53,2,1.83,2.1,1.8,4.36,3.73c1.51,1.25,3.11,2.46,4.72,3.73s3.23,2.59,5,3.84l5.27,3.82c3.53,2.65,7.38,5.12,11.26,7.77l2.94,2c1,.66,2,1.28,3,1.92l6.19,3.9,3.14,2,.86.54c.15.06.21.2.28.33l.13.21.25.39c.31.52.69,1,1,1.53a59.75,59.75,0,0,0,4.82,5.8,91.58,91.58,0,0,0,25.24,18.37A128.81,128.81,0,0,0,140.29,179a115,115,0,0,0,32.26,2.22,106.16,106.16,0,0,0,15.72-2.31,101.45,101.45,0,0,0,14.8-4.62c1.18-.48,2.35-.95,3.49-1.49l1.72-.8,1.67-.84c1.11-.57,2.19-1.18,3.24-1.81l.21-.14c.13,0,.23-.2.38-.17l.58,0,.93,0,1.85-.07q7.38-.33,14.41-.93c9.36-.79,18.19-1.8,26.28-3.09s15.46-2.77,21.91-4.42a131.67,131.67,0,0,0,16.41-5.27,71.18,71.18,0,0,0,10-4.85c1.12-.63,1.9-1.23,2.46-1.58Z"/></g></svg>