<svg xmlns="http://www.w3.org/2000/svg" viewBox="0 0 196.7 192.18"><defs><style>.cls-1{fill:#fafcff;}.cls-2{fill:#a3b6c9;}.cls-3{fill:#bcccd8;}.cls-4{fill:#576d7c;}.cls-5{fill:#8396a5;}.cls-6{fill:#dbdbdb;}.cls-7{fill:#fff;}.cls-8{fill:#91a1af;}.cls-9{fill:#caddea;}.cls-10{fill:#37536d;}.cls-11{fill:#284256;}.cls-12{fill:#3f617a;}</style></defs><g id="Objects"><path class="cls-1" d="M110.6,120.81S96.15,132,95.12,138.17s7,12.16,7.74,13.33S97.3,165,90.37,165s-18.77-9.17-21.44-19.5,1.55-21.58,13.38-29.68S110.44,116.79,110.6,120.81Z"/><path class="cls-2" d="M81.26,135.5s12-.67,15.25,1c0,0,.6,3.7-1.16,4.93,0,0-9.75,4.11-11.25,3.17S81.26,135.5,81.26,135.5Z"/><path class="cls-3" d="M72.93,132.5c5.5-1.09,14.17.5,14.83,7.83s-8.33,9.5-11.33,10.17a8.64,8.64,0,0,1-10.33-6.83C64.6,137.17,70.22,133,72.93,132.5Z"/><path class="cls-3" d="M82.6,162.41s11.88-1.15,16.52-14.78c0,0,16.27,16.62,20.11,20.79s-14.87,5.75-17.37,4.91S84.37,163.54,82.6,162.41Z"/><path class="cls-3" d="M108.26,166.86c-9.66,1-18.48,7.81-19.32,10.14s2,5.5,6.18,6.5,27.5-5,28.49-8.32-2.92-6.21-5-8.14S108.26,166.86,108.26,166.86Z"/><path class="cls-4" d="M97.53,170.45l.73-.48a14.83,14.83,0,0,1,2-1.1,13.48,13.48,0,0,1,1.42-.6c.51-.2,1.06-.38,1.64-.55s1.18-.31,1.8-.43,1.25-.21,1.88-.3,1.28-.12,1.91-.13,1.25,0,1.85,0,1.18.08,1.72.17a15.38,15.38,0,0,1,1.52.27,16.63,16.63,0,0,1,2.21.64l.82.32-.87,0c-.55,0-1.34-.06-2.26-.08h-1.5l-1.66,0-1.76.1c-.6,0-1.21.1-1.82.16s-1.21.13-1.8.24-1.18.18-1.75.28-1.11.21-1.62.34-1,.22-1.46.35Z"/><path class="cls-1" d="M64.26,84.5S63.93,96.17,49.6,99.67s-6.17,18-4.84,18.66,16.5,8.84,32.5-8.66S68.62,81.79,64.26,84.5Z"/><path class="cls-5" d="M64.94,90.7a54.69,54.69,0,0,0,9.94,18.7s-13.35-8.58-15-17.63S63.8,87.26,64.94,90.7Z"/><path class="cls-3" d="M43.93,120.81s7.56-3.48,8.62-11.81-1.79-11.5-2.79-11.67-9.5.34-11-.83a15.68,15.68,0,0,0-1.5-8.67c-2.16-4-7.33-4.52-9.33-3.76s.17,3.47,2.5,5.7,1.83,5.9,1.83,5.9S26.6,86.33,20.1,88s-.67,5.5,1.33,6.33,4,4.17,4,4.17-5.67-2.33-9.17-1-3.16,3.88-2,4.94,6.5.56,7.5,1.23,3.81,7.2,5.28,8.16c2.56,1.67,6.08,0,6.08,0S37.1,119,43.93,120.81Z"/><path class="cls-4" d="M34.26,96.67s-1.43.4-3.47,1.13c-.51.18-1.05.41-1.6.65a5,5,0,0,0-1.42,1,1.18,1.18,0,0,0-.26.6,1.5,1.5,0,0,0,.1.71,3.54,3.54,0,0,0,1.11,1.4,3.63,3.63,0,0,0,.75.52,2.23,2.23,0,0,0,.79.13h1c.68,0,1.35-.06,2-.13s1.47-.15,1.87-.13c-.83.62-1.67,1.19-2.14,1.6a3.62,3.62,0,0,0-.65.65l-.18.22-.1.16a2.13,2.13,0,0,0-.32.64,2.24,2.24,0,0,0,.59,2.16,5.53,5.53,0,0,0,.5.53l.2.19-.24-.13a3.85,3.85,0,0,1-.66-.38,3,3,0,0,1-.88-.87,2.39,2.39,0,0,1-.35-1.67,2.89,2.89,0,0,1,.28-1l.12-.23.06-.11,0,0,.05-.1,0-.1s-.13,0-.15,0l-.11,0a9.55,9.55,0,0,1-1.1,0,3.69,3.69,0,0,1-1.34-.24,5.35,5.35,0,0,1-1.07-.7,5.07,5.07,0,0,1-1.5-2,2.61,2.61,0,0,1,.56-2.65,5,5,0,0,1,1.94-1.07A11.71,11.71,0,0,1,30.57,97a19.12,19.12,0,0,1,2.67-.32A9.83,9.83,0,0,1,34.26,96.67Z"/><path class="cls-6" d="M136.27,50.5s10.33-8.34,19.66-1.84,10.67,20.87,2.44,27.51c-9.18,7.4-22.08,5.59-38.09,16.3s.65-.64.65-.64L116.2,88a79.31,79.31,0,0,1,11.18-5.09c6.55-2.42,21.93-6,27-9.43,5.87-4,4.54-15.62-1.46-20.65-5.59-4.68-18.67,5-18.67,5Z"/><path class="cls-7" d="M87.8,15.5s4.48-3.33,6-3.33,12.12,10.21,12.47,12.27-1.17,9.06-1.17,9.06S143.6,86.32,144.6,88.75a35.19,35.19,0,0,1-4.24,4.71c-2.18,1.93-41.57-45.63-41.67-47S87.8,15.5,87.8,15.5Z"/><path class="cls-8" d="M42.93,62.62s-8.07-8.34-8.67-10.53c0,0,50.07-35.92,53.54-36.59,0,0,12,10.21,12.9,12.44s-2,7.88-2,7.88,41.78,55.94,41.67,57.64-41.67,27.16-41.67,27.16Z"/><path class="cls-3" d="M165.26,111.17s7.84-.33,10.67,0,7,2.33,8.83.66,2-7.83-6-12.33-19.83-6.33-21.33-6-3.31,3-3,5.5S165.26,111.17,165.26,111.17Z"/><path class="cls-3" d="M148.43,100.28s14.7,6,12.27,18c0,0,6.23-5.82,7.06-7.16s1.56-9.17-4.63-13.5-9.53-1.34-11.53,0A18.68,18.68,0,0,0,148.43,100.28Z"/><path class="cls-1" d="M111.43,120.81s17.67,8,33.67,5.86,18.33-13.16,18-15.5-7.5-11.34-12.34-11-5.5,2.83-15.5-2.17S123,91.4,120.93,91.83,104.1,112,111.43,120.81Z"/><path class="cls-2" d="M147.76,115.83s.31-9.09-5.43-15c0,0,1.44-1.28,3.6.21,0,0,5.85,4,7,13.5Z"/><path class="cls-3" d="M148.93,112.56c-4.69.43-10.67,7.61-7.83,12.94s10.83,2.74,12.5,1.54,5.66-4.89,5.16-8.71S153.76,112.13,148.93,112.56Z"/><path class="cls-4" d="M157.44,97.08l.74.18a10.4,10.4,0,0,1,1.87.72,12.82,12.82,0,0,1,1.19.64,14.76,14.76,0,0,1,1.25.86c.4.33.83.67,1.22,1s.77.81,1.15,1.22.7.88,1,1.35a13.29,13.29,0,0,1,.82,1.39,11.1,11.1,0,0,1,.61,1.39,9.08,9.08,0,0,1,.42,1.28,10.11,10.11,0,0,1,.35,2c0,.48,0,.76,0,.76l-.33-.69c-.19-.43-.49-1-.86-1.74-.18-.35-.4-.73-.62-1.12s-.49-.79-.74-1.21-.55-.82-.86-1.23-.62-.83-.94-1.23-.67-.8-1-1.16-.71-.74-1.05-1.08-.7-.67-1.06-1-.66-.58-1-.82c-.62-.49-1.17-.88-1.56-1.15Z"/><path class="cls-1" d="M82.31,117.19s5,5.81,17.62,7.31,24.67-9,26.67-11.83,2.17-14.84-4-21.34S82.31,117.19,82.31,117.19Z"/><path class="cls-5" d="M80.48,116.92s17.41,4.5,23.85,9.25c0,0,3.56-.15,3.12-2.08S90.57,112.33,80.48,116.92Z"/><path class="cls-5" d="M124.73,92.7s-13.6,17-8.53,30c0,0-10.16,1.46-6.47-14.26C112,98.68,123.1,91.92,124.73,92.7Z"/><path class="cls-1" d="M64.94,86.17s3.74,24.37,17.37,31S122.93,99.5,122.6,92.5,105.43,61.82,96.51,61,66,72.17,64.94,86.17Z"/><path class="cls-2" d="M80.1,115.9s20.78,1.26,41.47-27.15c0,0,3.32,1.12,3.16,4s-9.8,13-19.3,20-22.15,6.83-22.83,6.5A5.22,5.22,0,0,1,80.1,115.9Z"/><path class="cls-9" d="M92.6,111.83s3.19,6.66,6.09,6.5,12.08-5.73,11.91-7.66-3.5-6.47-4.67-6.65S92.91,110.37,92.6,111.83Z"/><path class="cls-2" d="M72.93,93.17s16-12,20.84-13.67c0,0,12.83,16.33,14.49,19,0,0-19,13-22,13.33C86.26,111.83,74.26,96.5,72.93,93.17Z"/><path class="cls-1" d="M74.4,93.37s14.68-11,19.11-12.53c0,0,11.76,15,13.29,17.42,0,0-17.43,11.93-20.18,12.23C86.62,110.49,75.62,96.43,74.4,93.37Z"/><path class="cls-10" d="M78.26,93.52s4.34-2.91,5.17-3c0,0,9.85,12.72,10.34,13.54,0,0-4.12,2.22-5,2.86S78.26,93.52,78.26,93.52Z"/><circle class="cls-10" cx="90.37" cy="87.33" r="2.23"/><circle class="cls-10" cx="93.77" cy="92.7" r="2.23"/><circle class="cls-10" cx="98.23" cy="98.68" r="2.23"/><path class="cls-1" d="M96.61,57.87s13.32-10.55,25-13,17,4.26,19.4,8.59-1.07,14.57-2.24,16-17.5,6.14-17.5,6.14-4.34,5-6.33,5.16-9.66-1.51-13.33-7.34S96.61,57.87,96.61,57.87Z"/><path class="cls-5" d="M98.69,56.31s-1.93,9.61,13.57,18.86c0,0-4.88,2.67-11.69-3.54S94.37,54.71,98.69,56.31Z"/><path class="cls-3" d="M113.76,67.67s1.67-10.5,6.84-14,14.83-.76,18.5,4.2,1.33,12.3-1.17,14.8-8.64,5.3-14.24,5.56S113.76,67.67,113.76,67.67Z"/><path class="cls-9" d="M122.6,78.33s7.33-.5,8.66-2.33-.33-17.5-2.16-19.67-4.67-.9-4.67.88-.14,6.29-.74,8.12c0,0-3.76-7.9-7.43-8.12s-3.66,3.46-2.66,4.62a42.62,42.62,0,0,1,3.83,5.67s-5.57-3.11-9.17-2.5-1.6,4.43,0,5.17,7.17,3.16,7.67,4-.33,5.16-1,5.33-3.17,1.83-2.33,3.42S118.94,84.83,122.6,78.33Z"/><path class="cls-4" d="M122.46,76.43a1.87,1.87,0,0,1-.2-.22,2,2,0,0,1-.36-.72,1.78,1.78,0,0,1-.09-.53,2.51,2.51,0,0,1,0-.61,5.12,5.12,0,0,1,.14-.63c.08-.21.18-.41.28-.61a5.52,5.52,0,0,1,.4-.55,3.42,3.42,0,0,1,.49-.44,2.49,2.49,0,0,1,.52-.3,2.25,2.25,0,0,1,.52-.17,1.87,1.87,0,0,1,.81,0l.29.08-.21.21c-.14.12-.31.3-.49.49l-.28.32a3,3,0,0,1-.28.34l-.26.38a2.75,2.75,0,0,0-.26.4,3.3,3.3,0,0,0-.23.41,4.1,4.1,0,0,0-.22.41c0,.15-.14.28-.18.42s-.11.26-.14.39A9.19,9.19,0,0,0,122.46,76.43Z"/><path class="cls-1" d="M62.76,86.17c-2.92.52-7.9-3.08-10-4.62C46.2,76.69,41.51,69.68,42.43,61.17,43.78,48.71,56,37.4,68.23,36a24.41,24.41,0,0,1,22,9.18c8.25,10.5,3.5,20.25,3.5,20.25S75.26,83.92,62.76,86.17Z"/><path class="cls-11" d="M63.1,84c-4,1-10.15-5.67-12.27-8.55a18.55,18.55,0,0,1-2.15-17.68c4.66-11.18,21.25-15.39,30.4-7.22a28.88,28.88,0,0,1,7,10.5c2.61,6.23,1,8.47-3.38,12.57A44.75,44.75,0,0,1,63.1,84Z"/><path class="cls-2" d="M66.39,89.66c-1.2.27-3.88,2.08-5,.17-.71-1.21-1.91-3.91-1.46-4.54.74-1.06,2.91-1.71,5.92-3.27,4.8-2.5,19-14,23.56-19.35s7.1-6.35,8.6-4.8S99.52,68,87.35,77.24C77.42,84.8,71.2,88.54,66.39,89.66Z"/><path class="cls-3" d="M86.63,39.47c-4.75-.49-5.92,10-1.83,14.71s8.31,4.27,10.62,2.25C98.69,53.57,94.31,40.27,86.63,39.47Z"/><path class="cls-12" d="M51.4,74c-4.2-4.37-2.9-14.75,3.43-18.77S71,49.46,74.39,56.31,62.3,85.29,51.4,74Z"/><path class="cls-7" d="M50.13,61c-3.62,5.91,3.8,9.15,6.8,5.48S52.88,56.54,50.13,61Z"/></g></svg>