<svg xmlns="http://www.w3.org/2000/svg" xmlns:xlink="http://www.w3.org/1999/xlink" viewBox="0 0 167.1 171.21"><defs><style>.cls-1,.cls-10,.cls-11{fill:none;}.cls-2{fill:#e63b28;}.cls-3{isolation:isolate;}.cls-4{fill:#f3f1ec;}.cls-5,.cls-9{fill:#26204f;}.cls-5,.cls-8{mix-blend-mode:multiply;opacity:0.1;}.cls-6{fill:#dcdcdc;}.cls-7{fill:#e44237;}.cls-10,.cls-11{stroke-miterlimit:10;stroke-width:0.99px;}.cls-10{stroke:url(#Unnamed_Pattern_2);}.cls-11{stroke:#72727d;}.cls-12{fill:#72727d;}</style><pattern id="Unnamed_Pattern_2" data-name="Unnamed Pattern 2" width="800" height="800" patternTransform="translate(134.57 1962.6) scale(2.08 2.17)" patternUnits="userSpaceOnUse" viewBox="0 0 800 800"><rect class="cls-1" width="800" height="800"/><rect class="cls-2" width="800" height="800"/></pattern></defs><g class="cls-3"><g id="Warstwa_1" data-name="Warstwa 1"><path class="cls-4" d="M113.91,90.61,63.29,43.78a10.35,10.35,0,0,0-15,.95L35.59,59.64a11.47,11.47,0,0,0,.9,15.71l50.62,46.83Z"/><path class="cls-5" d="M44.22,49.78a10.34,10.34,0,0,1,15-.94l50.47,46.69,4.18-4.92L63.29,43.78a10.35,10.35,0,0,0-15,.95L35.59,59.64a10.93,10.93,0,0,0-1.15,1.66Z"/><polygon class="cls-6" points="100.14 106.83 100.14 106.83 87.11 122.18 106.56 129.73 114.63 120.23 114.63 120.23 122.7 110.72 113.91 90.61 100.14 106.83"/><polygon class="cls-7" points="127.34 115.06 111.22 134.04 106.56 129.73 122.68 110.75 127.34 115.06"/><polygon class="cls-6" points="141.15 120.68 127.35 115.05 119.68 124.08 119.29 124.54 111.22 134.04 118.23 147.66 129.69 134.18 129.42 133.91 129.69 134.17 141.15 120.68"/><g class="cls-8"><polygon class="cls-9" points="96 111.74 96 111.74 109.77 95.52 118.48 115.47 123.19 119.98 123.2 119.96 136.98 125.59 141.15 120.68 127.35 115.05 127.34 115.06 122.62 110.56 113.91 90.61 100.14 106.83 100.14 106.83 87.11 122.18 87.13 122.18 96 111.74"/><polygon class="cls-9" points="125.27 138.82 125.52 139.08 125.53 139.07 125.27 138.82"/></g><path class="cls-7" d="M72.18,46.62a2.9,2.9,0,0,1,.24,4L44,84.09a2.63,2.63,0,0,1-3.81.24h0a2.91,2.91,0,0,1-.23-4L68.37,46.86a2.62,2.62,0,0,1,3.81-.24Z"/><path class="cls-5" d="M72.18,46.62a2.57,2.57,0,0,0-2.7-.5,2.65,2.65,0,0,1,.66.4,2.9,2.9,0,0,1,.23,4L41.94,84a2.71,2.71,0,0,1-1.11.74A2.59,2.59,0,0,0,44,84.09L72.42,50.6A2.9,2.9,0,0,0,72.18,46.62Z"/><path class="cls-10" d="M75.15,123.74a1,1,0,0,1,.19,1.37L39.62,167.18a.91.91,0,0,1-1.31,0L6.79,138a1,1,0,0,1-.19-1.36L42.32,94.56a.91.91,0,0,1,1.32,0Z"/><line class="cls-10" x1="11.96" y1="142.77" x2="48.81" y2="99.37"/><line class="cls-10" x1="18.51" y1="148.83" x2="55.36" y2="105.44"/><line class="cls-10" x1="25.06" y1="154.89" x2="61.91" y2="111.49"/><line class="cls-10" x1="31.61" y1="160.95" x2="68.46" y2="117.55"/><line class="cls-10" x1="12.3" y1="129.91" x2="45.32" y2="160.46"/><line class="cls-10" x1="18.43" y1="122.69" x2="51.45" y2="153.24"/><line class="cls-10" x1="24.56" y1="115.47" x2="57.59" y2="146.02"/><line class="cls-10" x1="30.69" y1="108.25" x2="63.72" y2="138.8"/><line class="cls-10" x1="36.82" y1="101.03" x2="69.85" y2="131.58"/><line class="cls-10" x1="57.91" y1="107.8" x2="63.92" y2="100.72"/><path class="cls-10" d="M114,78a.92.92,0,0,0,1.32,0L151,36a1,1,0,0,0-.2-1.35L119.3,5.48a.91.91,0,0,0-1.31,0L82.26,47.52a1,1,0,0,0,.2,1.36Z"/><line class="cls-10" x1="124.47" y1="10.27" x2="87.63" y2="53.66"/><line class="cls-10" x1="131.02" y1="16.32" x2="94.18" y2="59.72"/><line class="cls-10" x1="137.57" y1="22.39" x2="100.73" y2="65.78"/><line class="cls-10" x1="144.12" y1="28.45" x2="107.27" y2="71.84"/><line class="cls-10" x1="112.29" y1="12.15" x2="145.31" y2="42.71"/><line class="cls-10" x1="106.15" y1="19.38" x2="139.18" y2="49.93"/><line class="cls-10" x1="100.02" y1="26.6" x2="133.05" y2="57.15"/><line class="cls-10" x1="93.89" y1="33.82" x2="126.92" y2="64.37"/><line class="cls-10" x1="87.76" y1="41.04" x2="120.78" y2="71.59"/><line class="cls-10" x1="96.73" y1="62.08" x2="90.72" y2="69.15"/><line class="cls-11" x1="129.69" y1="134.17" x2="139.52" y2="143.25"/><path class="cls-7" d="M140.92,139.7a3.68,3.68,0,0,1,.29,5.05,3.32,3.32,0,0,1-4.83.31,3.69,3.69,0,0,1-.3-5.05A3.33,3.33,0,0,1,140.92,139.7Z"/><path class="cls-5" d="M140.92,139.7a3.31,3.31,0,0,0-2.61-.87,3.14,3.14,0,0,1,.51.39,3.68,3.68,0,0,1,.29,5.05,3.3,3.3,0,0,1-2.22,1.17,3.3,3.3,0,0,0,4.32-.69A3.68,3.68,0,0,0,140.92,139.7Z"/><path class="cls-12" d="M71.5,98.37a1.24,1.24,0,0,1,.1,1.71h0a1.12,1.12,0,0,1-1.63.1l-17.29-16a1.23,1.23,0,0,1-.1-1.7h0a1.1,1.1,0,0,1,1.63-.1Z"/></g></g></svg>