<svg xmlns="http://www.w3.org/2000/svg" viewBox="0 0 186.47 177.84"><defs><style>.cls-1{fill:#ff9528;}.cls-2{fill:#ffce32;}.cls-3{fill:#ffe193;}</style></defs><g id="OBJECTS-2" data-name="OBJECTS"><path class="cls-1" d="M127.55,71.35c5.84-1.91,11.56-3.57,17.12-6.44,5.1-2.63,12.59-4.63,17-8.74a63,63,0,0,0-6.24,6.67q-6,7.06-12,14.15c-5.67,6.67-11.62,12.61-5.19,21.75,3.95,5.63,10.2,8.79,15.7,11.3,6.88,3.14,14,6.21,21.28,6.26A167.48,167.48,0,0,0,133,120.08c-4.57,1-9.34,2.33-12.77,6.22-3.66,4.13-5.16,10.48-5.61,16.61s0,12.32-.62,18.43c-4.23-12.4-9.56-26.12-19.8-30.38-8.3-3.46-17.58.62-24.57,7.22s-12.31,15.5-18.34,23.42L61,133.91c1.95-5.61,3.94-11.5,3.58-17.6a23.31,23.31,0,0,0-5.14-13.92c-4.11-4.77-8.11-5.08-13.52-5.29A153.92,153.92,0,0,0,7,100.52c12.48-3,23.73-9.57,36-12.85,3.76-1,7.7-2.13,10.57-5.33S57.85,74,58.31,69.05a182.59,182.59,0,0,0,.25-20.66c-.25-12.46-1.16-27.62-4.38-39.47,5.58,20.5,12.06,42.51,26.56,54.39C82,64.37,83.49,65.37,85,65.16c2-.29,3.44-2.54,4.61-4.62a323.47,323.47,0,0,0,18.92-40.18l-3.33,23.15c-1.16,8.08-2.08,17.37,2.18,23.62C112.08,74,120.6,73.62,127.55,71.35Z"/><path class="cls-2" d="M130.91,105.12c2-8.49,35.16-28.31,35.16-28.31S140,86.47,130.58,80.62,136.74,33,136.74,33,121.11,63.8,104.59,67.71,83.17,30.06,83.17,30.06,86.71,61.7,75,65,38.6,50.22,38.6,50.22,63.84,74.55,63.09,92.4,33.19,132,33.14,132c9.08-6.78,18.85-13.88,29.52-15.64,12.14-2,19,6.93,24.24,20,2.66,6.74,4.39,14,6.11,21.18-.09-7.82-.13-16,2.54-23s9.48-14.48,16.18-14.67c5.4-.16,11.88,5.1,16.58,8.17a238.12,238.12,0,0,1,23.12,17.3S128.94,113.61,130.91,105.12Z"/><path class="cls-3" d="M109.46,105a12.44,12.44,0,0,0-8.32,3.64c-5,4.72-7.15,12.79-9,20.37a52.6,52.6,0,0,0-.83-11.15c-1.44-7.92-7.84-10.51-13.49-10.57A29,29,0,0,0,66,109.72a4.55,4.55,0,0,1-2.37,1.13c.78-.42,1.57-.78,2.37-1.13a9.49,9.49,0,0,0,2.8-4.85,23.15,23.15,0,0,0,0-9.38,50.81,50.81,0,0,0-9.83-22.92c1.74,2.19,4.74,3.11,6.9,4.42a24.11,24.11,0,0,0,3.23,1.75c4.29,1.8,8.8.53,12.47-2.63l.06,0c4-3.49,4.14-9.07,4.66-15a83.69,83.69,0,0,0,9.2,18.45c1.14,1.71,2.43,3.42,4.11,4.06a6.42,6.42,0,0,0,4.53-.32c5.55-2,10.27-6.68,14.83-11.23a27.49,27.49,0,0,0-2,8.1c-.14,2.86.75,6,2.71,7.34a6.78,6.78,0,0,0,4.07.89A80.5,80.5,0,0,0,142,86.16c-3.58,1.35-7.32,2.82-10,6.19-2.87,3.62-4.08,9.05-3.9,14.23a45.83,45.83,0,0,0,3.43,14.8C127.05,112.82,117.94,104.7,109.46,105Z"/><path class="cls-2" d="M137.42,55.65c3.09-2.39,7.66-5.74,10.86-8.08,3.61-2.7,7.45-5.63,11.77-6.85-3,3.5-7,5.91-10.88,8.18l-5.79,3.5c-1.95,1.14-3.89,2.3-5.85,3.41-.1.06-.21-.09-.11-.16Z"/><path class="cls-2" d="M118.14,40c1.29-3.9,3.3-9.5,4.71-13.42,1.56-4.47,3.17-9.26,6.15-12.91-.57,4.77-2.6,9.21-4.66,13.52l-3,6.46c-1,2.14-2,4.29-3,6.43,0,.1-.23,0-.19-.08Z"/><path class="cls-2" d="M143.7,21.91a37.4,37.4,0,0,1,3-5.56,4.49,4.49,0,0,1,2-1.14.13.13,0,0,1,.16.12,4.46,4.46,0,0,1-1.92,3.76c-1,1-2,2-3,2.94-.07.07-.2,0-.16-.12Z"/><path class="cls-2" d="M74.3,44.16c-.8-3.82-2.3-11.52-3-15.36-1-5.1-2.13-10.51-1.5-15.66,2.91,7.05,2.93,15.68,3.94,23.2l.75,7.79a.1.1,0,0,1-.19,0Z"/><path class="cls-2" d="M90.5,34.34c-.43-2.29-.81-4.6-1.12-6.91a11.82,11.82,0,0,1,.27-7,.11.11,0,0,1,.2,0A11.79,11.79,0,0,1,91,27.33c0,2.33-.12,4.67-.28,7a.1.1,0,0,1-.2,0Z"/><path class="cls-2" d="M51.46,46.56c-2.23-3.56-4.24-7.26-6.14-11a31.77,31.77,0,0,1-4.15-11.91.11.11,0,0,1,.19-.07,44.91,44.91,0,0,1,5.42,11.33c1.53,3.9,3.18,7.74,4.86,11.58,0,.11-.12.2-.18.09Z"/><path class="cls-2" d="M45.93,75.67c-4.21-.25-8.4-.45-12.6-.51a47.56,47.56,0,0,1-12.58-1,.11.11,0,0,1,0-.2,31.27,31.27,0,0,1,12.67-.4c4.21.45,8.39,1,12.53,1.91.11,0,.1.21,0,.2Z"/><path class="cls-2" d="M41.83,108.11c-3.65,1.67-9,4-12.76,5.54-4.24,1.86-8.77,3.89-13.37,4.14,3.8-2.78,8.34-4.27,12.81-5.64L35.12,110c2.21-.69,4.42-1.4,6.64-2.06a.1.1,0,0,1,.07.18Z"/><path class="cls-2" d="M31.54,122.6a40,40,0,0,1-5.14,3.88,4.65,4.65,0,0,1-2.3.24.12.12,0,0,1-.09-.17,4.63,4.63,0,0,1,3.37-2.68c1.33-.54,2.68-1,4.06-1.45a.11.11,0,0,1,.1.18Z"/><path class="cls-2" d="M48.9,136.49a112.62,112.62,0,0,1-9.37,13.11,21.74,21.74,0,0,1-4.25,3.4.11.11,0,0,1-.15,0A21.85,21.85,0,0,1,38,148.29a49.57,49.57,0,0,1,3.6-3.94c2.1-2.27,5-5.63,7.12-8,.08-.09.23,0,.16.12Z"/><path class="cls-2" d="M73.69,152.46c-1.14,3.19-2.25,6.39-3.23,9.63a30.1,30.1,0,0,1-3.78,9.43c-.06.08-.2,0-.2-.05A20.91,20.91,0,0,1,69,161.54a89.85,89.85,0,0,1,4.55-9.17c0-.1.22,0,.18.09Z"/><path class="cls-2" d="M125.4,141.48c1.6,3.11,3.78,7.47,5.41,10.5a37.36,37.36,0,0,1,4.62,10.85.1.1,0,0,1-.17.09,29.19,29.19,0,0,1-5.9-10.26c-1.5-3.66-2.92-7.35-4.15-11.1,0-.11.14-.19.19-.08Z"/><path class="cls-2" d="M151.61,129.8a110.22,110.22,0,0,0,9.9,5.65,49.29,49.29,0,0,1,10,5.47.11.11,0,0,1-.08.19,22.64,22.64,0,0,1-10.69-4.27,69.9,69.9,0,0,1-9.24-6.88c-.08-.07,0-.23.12-.16Z"/><path class="cls-2" d="M160.32,125.07c1.42.43,3.45,1,4.9,1.39a10.92,10.92,0,0,1,2.42.64,7,7,0,0,1,2.17,1.56.12.12,0,0,1,0,.17A5.39,5.39,0,0,1,167,129a22.11,22.11,0,0,1-4.65-2.3c-.73-.47-1.46-.93-2.15-1.45a.11.11,0,0,1,0-.14.1.1,0,0,1,.11,0Z"/><path class="cls-2" d="M154.52,95.56c3.23-.13,7.91-.16,11.18-.18,3.42-.1,8.11-.14,11.18,1.35-3.68,1.07-7.51.72-11.25.25-3.27-.32-7.9-.79-11.12-1.22-.11,0-.11-.2,0-.2Z"/><path class="cls-2" d="M157.84,70.53a27.37,27.37,0,0,1,7.31-4.35,6.3,6.3,0,0,1,3,0,.11.11,0,0,1,0,.19,9,9,0,0,1-5,2.49q-2.64.84-5.25,1.83c-.11,0-.19-.11-.1-.17Z"/></g></svg>